<mxfile host="65bd71144e">
    <diagram id="cMuZgASeCZw4-EUx-qbm" name="Page-1">
        <mxGraphModel dx="1752" dy="567" grid="1" gridSize="10" guides="1" tooltips="1" connect="1" arrows="1" fold="1" page="1" pageScale="1" pageWidth="827" pageHeight="1169" math="0" shadow="0">
            <root>
                <mxCell id="0"/>
                <mxCell id="1" parent="0"/>
                <mxCell id="KS1cjHXPHbPK1r8d_VXm-8" value="" style="edgeStyle=none;html=1;" edge="1" parent="1" source="2" target="3">
                    <mxGeometry relative="1" as="geometry"/>
                </mxCell>
                <mxCell id="2" value="&lt;font style=&quot;font-size: 15px;&quot; color=&quot;#000000&quot;&gt;INICIO&lt;/font&gt;" style="ellipse;whiteSpace=wrap;html=1;fillColor=#e1d5e7;strokeColor=#9673a6;" vertex="1" parent="1">
                    <mxGeometry x="820" y="60" width="130" height="70" as="geometry"/>
                </mxCell>
                <mxCell id="KS1cjHXPHbPK1r8d_VXm-9" value="" style="edgeStyle=none;html=1;" edge="1" parent="1" source="3" target="4">
                    <mxGeometry relative="1" as="geometry"/>
                </mxCell>
                <mxCell id="3" value="&lt;font style=&quot;font-size: 17px;&quot; color=&quot;#000000&quot;&gt;x.y&lt;/font&gt;" style="shape=parallelogram;perimeter=parallelogramPerimeter;whiteSpace=wrap;html=1;fixedSize=1;fillColor=#ffff88;strokeColor=#36393d;" vertex="1" parent="1">
                    <mxGeometry x="810" y="180" width="150" height="60" as="geometry"/>
                </mxCell>
                <mxCell id="KS1cjHXPHbPK1r8d_VXm-10" style="edgeStyle=none;html=1;entryX=0.5;entryY=0;entryDx=0;entryDy=0;" edge="1" parent="1" source="4" target="KS1cjHXPHbPK1r8d_VXm-4">
                    <mxGeometry relative="1" as="geometry">
                        <Array as="points">
                            <mxPoint x="1145" y="345"/>
                        </Array>
                    </mxGeometry>
                </mxCell>
                <mxCell id="KS1cjHXPHbPK1r8d_VXm-13" style="edgeStyle=none;html=1;entryX=0.5;entryY=0;entryDx=0;entryDy=0;" edge="1" parent="1" source="4" target="KS1cjHXPHbPK1r8d_VXm-7">
                    <mxGeometry relative="1" as="geometry">
                        <Array as="points">
                            <mxPoint x="630" y="340"/>
                        </Array>
                    </mxGeometry>
                </mxCell>
                <mxCell id="4" value="&lt;font color=&quot;#000000&quot; style=&quot;font-size: 15px;&quot;&gt;x == 0&lt;/font&gt;" style="rhombus;whiteSpace=wrap;html=1;fillColor=#ffcccc;strokeColor=#36393d;" vertex="1" parent="1">
                    <mxGeometry x="840" y="300" width="90" height="90" as="geometry"/>
                </mxCell>
                <mxCell id="KS1cjHXPHbPK1r8d_VXm-11" style="edgeStyle=none;html=1;entryX=0.5;entryY=0;entryDx=0;entryDy=0;" edge="1" parent="1" source="KS1cjHXPHbPK1r8d_VXm-4" target="KS1cjHXPHbPK1r8d_VXm-6">
                    <mxGeometry relative="1" as="geometry">
                        <Array as="points">
                            <mxPoint x="980" y="415"/>
                        </Array>
                    </mxGeometry>
                </mxCell>
                <mxCell id="KS1cjHXPHbPK1r8d_VXm-12" style="edgeStyle=none;html=1;exitX=1;exitY=0.5;exitDx=0;exitDy=0;entryX=0.5;entryY=0;entryDx=0;entryDy=0;" edge="1" parent="1" source="KS1cjHXPHbPK1r8d_VXm-4" target="KS1cjHXPHbPK1r8d_VXm-5">
                    <mxGeometry relative="1" as="geometry">
                        <Array as="points">
                            <mxPoint x="1320" y="415"/>
                        </Array>
                    </mxGeometry>
                </mxCell>
                <mxCell id="KS1cjHXPHbPK1r8d_VXm-4" value="&lt;font style=&quot;font-size: 14px;&quot; color=&quot;#000000&quot;&gt;y == 0&lt;/font&gt;" style="rhombus;whiteSpace=wrap;html=1;fillColor=#ffcccc;strokeColor=#36393d;" vertex="1" parent="1">
                    <mxGeometry x="1100" y="370" width="90" height="90" as="geometry"/>
                </mxCell>
                <mxCell id="KS1cjHXPHbPK1r8d_VXm-34" style="edgeStyle=none;html=1;" edge="1" parent="1" source="KS1cjHXPHbPK1r8d_VXm-5">
                    <mxGeometry relative="1" as="geometry">
                        <mxPoint x="1160" y="680" as="targetPoint"/>
                        <Array as="points">
                            <mxPoint x="1320" y="640"/>
                            <mxPoint x="1160" y="640"/>
                        </Array>
                    </mxGeometry>
                </mxCell>
                <mxCell id="KS1cjHXPHbPK1r8d_VXm-5" value="&lt;font style=&quot;font-size: 15px;&quot; color=&quot;#000000&quot;&gt;ORIGEN&lt;/font&gt;" style="shape=document;whiteSpace=wrap;html=1;boundedLbl=1;fillColor=#cdeb8b;strokeColor=#36393d;" vertex="1" parent="1">
                    <mxGeometry x="1250" y="470" width="140" height="80" as="geometry"/>
                </mxCell>
                <mxCell id="KS1cjHXPHbPK1r8d_VXm-33" style="edgeStyle=none;html=1;entryX=0.5;entryY=0;entryDx=0;entryDy=0;" edge="1" parent="1" source="KS1cjHXPHbPK1r8d_VXm-6" target="KS1cjHXPHbPK1r8d_VXm-32">
                    <mxGeometry relative="1" as="geometry">
                        <mxPoint x="1160" y="680" as="targetPoint"/>
                        <Array as="points">
                            <mxPoint x="980" y="640"/>
                            <mxPoint x="1160" y="640"/>
                            <mxPoint x="1160" y="890"/>
                            <mxPoint x="660" y="890"/>
                        </Array>
                    </mxGeometry>
                </mxCell>
                <mxCell id="KS1cjHXPHbPK1r8d_VXm-6" value="&lt;font style=&quot;font-size: 15px;&quot; color=&quot;#000000&quot;&gt;Eje y&lt;/font&gt;" style="shape=document;whiteSpace=wrap;html=1;boundedLbl=1;fillColor=#cdeb8b;strokeColor=#36393d;" vertex="1" parent="1">
                    <mxGeometry x="910" y="480" width="140" height="80" as="geometry"/>
                </mxCell>
                <mxCell id="KS1cjHXPHbPK1r8d_VXm-15" style="edgeStyle=none;html=1;entryX=0.5;entryY=0;entryDx=0;entryDy=0;" edge="1" parent="1" source="KS1cjHXPHbPK1r8d_VXm-7" target="KS1cjHXPHbPK1r8d_VXm-14">
                    <mxGeometry relative="1" as="geometry">
                        <Array as="points">
                            <mxPoint x="765" y="415"/>
                        </Array>
                    </mxGeometry>
                </mxCell>
                <mxCell id="KS1cjHXPHbPK1r8d_VXm-18" style="edgeStyle=none;html=1;entryX=0.5;entryY=0;entryDx=0;entryDy=0;" edge="1" parent="1" source="KS1cjHXPHbPK1r8d_VXm-7" target="KS1cjHXPHbPK1r8d_VXm-16">
                    <mxGeometry relative="1" as="geometry">
                        <Array as="points">
                            <mxPoint x="414" y="415"/>
                        </Array>
                    </mxGeometry>
                </mxCell>
                <mxCell id="KS1cjHXPHbPK1r8d_VXm-7" value="&lt;font style=&quot;font-size: 14px;&quot; color=&quot;#000000&quot;&gt;y == o&lt;/font&gt;" style="rhombus;whiteSpace=wrap;html=1;fillColor=#ffcccc;strokeColor=#36393d;" vertex="1" parent="1">
                    <mxGeometry x="580" y="370" width="100" height="90" as="geometry"/>
                </mxCell>
                <mxCell id="KS1cjHXPHbPK1r8d_VXm-35" style="edgeStyle=none;html=1;" edge="1" parent="1" source="KS1cjHXPHbPK1r8d_VXm-14">
                    <mxGeometry relative="1" as="geometry">
                        <mxPoint x="765" y="880" as="targetPoint"/>
                    </mxGeometry>
                </mxCell>
                <mxCell id="KS1cjHXPHbPK1r8d_VXm-14" value="&lt;font style=&quot;font-size: 15px;&quot; color=&quot;#000000&quot;&gt;Eje x&lt;/font&gt;" style="shape=document;whiteSpace=wrap;html=1;boundedLbl=1;fillColor=#cdeb8b;strokeColor=#36393d;" vertex="1" parent="1">
                    <mxGeometry x="690" y="480" width="150" height="80" as="geometry"/>
                </mxCell>
                <mxCell id="KS1cjHXPHbPK1r8d_VXm-19" style="edgeStyle=none;html=1;entryX=0.5;entryY=0;entryDx=0;entryDy=0;" edge="1" parent="1" source="KS1cjHXPHbPK1r8d_VXm-16" target="KS1cjHXPHbPK1r8d_VXm-17">
                    <mxGeometry relative="1" as="geometry">
                        <Array as="points">
                            <mxPoint x="560" y="485"/>
                        </Array>
                    </mxGeometry>
                </mxCell>
                <mxCell id="KS1cjHXPHbPK1r8d_VXm-27" style="edgeStyle=none;html=1;entryX=0.5;entryY=0;entryDx=0;entryDy=0;" edge="1" parent="1" source="KS1cjHXPHbPK1r8d_VXm-16" target="KS1cjHXPHbPK1r8d_VXm-26">
                    <mxGeometry relative="1" as="geometry">
                        <Array as="points">
                            <mxPoint x="110" y="485"/>
                        </Array>
                    </mxGeometry>
                </mxCell>
                <mxCell id="KS1cjHXPHbPK1r8d_VXm-16" value="&lt;font style=&quot;font-size: 15px;&quot; color=&quot;#000000&quot;&gt;x&amp;gt;0&lt;/font&gt;" style="rhombus;whiteSpace=wrap;html=1;fillColor=#ffcccc;strokeColor=#36393d;" vertex="1" parent="1">
                    <mxGeometry x="369" y="440" width="90" height="90" as="geometry"/>
                </mxCell>
                <mxCell id="KS1cjHXPHbPK1r8d_VXm-23" style="edgeStyle=none;html=1;entryX=0.5;entryY=0;entryDx=0;entryDy=0;exitX=0;exitY=0.5;exitDx=0;exitDy=0;" edge="1" parent="1" source="KS1cjHXPHbPK1r8d_VXm-17" target="KS1cjHXPHbPK1r8d_VXm-22">
                    <mxGeometry relative="1" as="geometry">
                        <Array as="points">
                            <mxPoint x="460" y="590"/>
                        </Array>
                    </mxGeometry>
                </mxCell>
                <mxCell id="KS1cjHXPHbPK1r8d_VXm-24" style="edgeStyle=none;html=1;exitX=1;exitY=0.5;exitDx=0;exitDy=0;entryX=0.5;entryY=0;entryDx=0;entryDy=0;" edge="1" parent="1" source="KS1cjHXPHbPK1r8d_VXm-17" target="KS1cjHXPHbPK1r8d_VXm-21">
                    <mxGeometry relative="1" as="geometry">
                        <Array as="points">
                            <mxPoint x="670" y="593"/>
                        </Array>
                    </mxGeometry>
                </mxCell>
                <mxCell id="KS1cjHXPHbPK1r8d_VXm-17" value="&lt;font style=&quot;font-size: 15px;&quot; color=&quot;#000000&quot;&gt;y&amp;gt;0&lt;/font&gt;" style="rhombus;whiteSpace=wrap;html=1;fillColor=#ffcccc;strokeColor=#36393d;" vertex="1" parent="1">
                    <mxGeometry x="510" y="550" width="100" height="85" as="geometry"/>
                </mxCell>
                <mxCell id="KS1cjHXPHbPK1r8d_VXm-37" style="edgeStyle=none;html=1;" edge="1" parent="1" source="KS1cjHXPHbPK1r8d_VXm-21">
                    <mxGeometry relative="1" as="geometry">
                        <mxPoint x="580" y="890" as="targetPoint"/>
                        <Array as="points">
                            <mxPoint x="670" y="800"/>
                            <mxPoint x="580" y="800"/>
                        </Array>
                    </mxGeometry>
                </mxCell>
                <mxCell id="KS1cjHXPHbPK1r8d_VXm-21" value="&lt;font style=&quot;font-size: 15px;&quot; color=&quot;#000000&quot;&gt;CUADRANTE 1&lt;/font&gt;" style="shape=document;whiteSpace=wrap;html=1;boundedLbl=1;fillColor=#cdeb8b;strokeColor=#36393d;" vertex="1" parent="1">
                    <mxGeometry x="600" y="650" width="140" height="80" as="geometry"/>
                </mxCell>
                <mxCell id="KS1cjHXPHbPK1r8d_VXm-36" style="edgeStyle=none;html=1;" edge="1" parent="1" source="KS1cjHXPHbPK1r8d_VXm-22">
                    <mxGeometry relative="1" as="geometry">
                        <mxPoint x="580" y="890" as="targetPoint"/>
                        <Array as="points">
                            <mxPoint x="460" y="800"/>
                            <mxPoint x="580" y="800"/>
                        </Array>
                    </mxGeometry>
                </mxCell>
                <mxCell id="KS1cjHXPHbPK1r8d_VXm-22" value="&lt;font style=&quot;font-size: 15px;&quot; color=&quot;#000000&quot;&gt;CUADRANTE 4&lt;/font&gt;" style="shape=document;whiteSpace=wrap;html=1;boundedLbl=1;fillColor=#cdeb8b;strokeColor=#36393d;" vertex="1" parent="1">
                    <mxGeometry x="390" y="650" width="140" height="80" as="geometry"/>
                </mxCell>
                <mxCell id="KS1cjHXPHbPK1r8d_VXm-30" style="edgeStyle=none;html=1;entryX=0.5;entryY=0;entryDx=0;entryDy=0;" edge="1" parent="1" source="KS1cjHXPHbPK1r8d_VXm-26" target="KS1cjHXPHbPK1r8d_VXm-28">
                    <mxGeometry relative="1" as="geometry">
                        <Array as="points">
                            <mxPoint x="-60" y="555"/>
                        </Array>
                    </mxGeometry>
                </mxCell>
                <mxCell id="KS1cjHXPHbPK1r8d_VXm-31" style="edgeStyle=none;html=1;exitX=1;exitY=0.5;exitDx=0;exitDy=0;entryX=0.5;entryY=0;entryDx=0;entryDy=0;" edge="1" parent="1" source="KS1cjHXPHbPK1r8d_VXm-26" target="KS1cjHXPHbPK1r8d_VXm-29">
                    <mxGeometry relative="1" as="geometry">
                        <Array as="points">
                            <mxPoint x="270" y="555"/>
                        </Array>
                    </mxGeometry>
                </mxCell>
                <mxCell id="KS1cjHXPHbPK1r8d_VXm-26" value="" style="rhombus;whiteSpace=wrap;html=1;fillColor=#ffcccc;strokeColor=#36393d;" vertex="1" parent="1">
                    <mxGeometry x="60" y="510" width="100" height="90" as="geometry"/>
                </mxCell>
                <mxCell id="KS1cjHXPHbPK1r8d_VXm-38" style="edgeStyle=none;html=1;" edge="1" parent="1" source="KS1cjHXPHbPK1r8d_VXm-28">
                    <mxGeometry relative="1" as="geometry">
                        <mxPoint x="100" y="890" as="targetPoint"/>
                        <Array as="points">
                            <mxPoint x="-60" y="800"/>
                            <mxPoint x="100" y="800"/>
                        </Array>
                    </mxGeometry>
                </mxCell>
                <mxCell id="KS1cjHXPHbPK1r8d_VXm-28" value="&lt;font style=&quot;font-size: 14px;&quot; color=&quot;#000000&quot;&gt;CUADRANTE 2&lt;/font&gt;" style="shape=document;whiteSpace=wrap;html=1;boundedLbl=1;fillColor=#cdeb8b;strokeColor=#36393d;" vertex="1" parent="1">
                    <mxGeometry x="-130" y="630" width="140" height="80" as="geometry"/>
                </mxCell>
                <mxCell id="KS1cjHXPHbPK1r8d_VXm-39" style="edgeStyle=none;html=1;" edge="1" parent="1" source="KS1cjHXPHbPK1r8d_VXm-29">
                    <mxGeometry relative="1" as="geometry">
                        <mxPoint x="100" y="890" as="targetPoint"/>
                        <Array as="points">
                            <mxPoint x="270" y="800"/>
                            <mxPoint x="100" y="800"/>
                        </Array>
                    </mxGeometry>
                </mxCell>
                <mxCell id="KS1cjHXPHbPK1r8d_VXm-29" value="&lt;font style=&quot;font-size: 15px;&quot; color=&quot;#000000&quot;&gt;CUADRANTE 3&lt;/font&gt;" style="shape=document;whiteSpace=wrap;html=1;boundedLbl=1;fillColor=#cdeb8b;strokeColor=#36393d;" vertex="1" parent="1">
                    <mxGeometry x="200" y="635" width="140" height="80" as="geometry"/>
                </mxCell>
                <mxCell id="KS1cjHXPHbPK1r8d_VXm-32" value="&lt;font style=&quot;font-size: 15px;&quot; color=&quot;#000000&quot;&gt;FIN&lt;/font&gt;" style="ellipse;whiteSpace=wrap;html=1;fillColor=#e1d5e7;strokeColor=#9673a6;" vertex="1" parent="1">
                    <mxGeometry x="590" y="920" width="140" height="70" as="geometry"/>
                </mxCell>
                <mxCell id="KS1cjHXPHbPK1r8d_VXm-40" value="" style="endArrow=none;html=1;" edge="1" parent="1">
                    <mxGeometry width="50" height="50" relative="1" as="geometry">
                        <mxPoint x="100" y="890" as="sourcePoint"/>
                        <mxPoint x="670" y="890" as="targetPoint"/>
                    </mxGeometry>
                </mxCell>
            </root>
        </mxGraphModel>
    </diagram>
</mxfile>